HIERARCHY
ROOT Hips
{
  OFFSET 5.72205e-005 65.662 3.42586
  CHANNELS 6 Xposition Yposition Zposition Zrotation Xrotation Yrotation
  JOINT Chest
  {
    OFFSET 0 8.7983 -4.7612
    CHANNELS 3 Zrotation Xrotation Yrotation
    JOINT Chest2
    {
      OFFSET 0 8.0291 0.4195
      CHANNELS 3 Zrotation Xrotation Yrotation
      JOINT Chest3
      {
        OFFSET 0 9.9351 -2.2114
        CHANNELS 3 Zrotation Xrotation Yrotation
        JOINT Neck
        {
          OFFSET 0 22.3885 -0.4656
          CHANNELS 3 Zrotation Xrotation Yrotation
          JOINT Head
          {
            OFFSET -0.0001 12.643 3.4389
            CHANNELS 3 Zrotation Xrotation Yrotation
            End Site
            {
              OFFSET 0.0001 17.6655 0.5274
            }
          }
        }
        JOINT LeftCollar
        {
          OFFSET 2.2603 21.606 7.4023
          CHANNELS 3 Zrotation Xrotation Yrotation
          JOINT LeftShoulder
          {
            OFFSET 13.5163 -1.1332 -5.0146
            CHANNELS 3 Zrotation Xrotation Yrotation
            JOINT LeftElbow
            {
              OFFSET -0.0995 -28.05 -0.2431
              CHANNELS 3 Zrotation Xrotation Yrotation
              JOINT LeftWrist
              {
                OFFSET 0.0679 -23.3996 -0.1402
                CHANNELS 3 Zrotation Xrotation Yrotation
                JOINT LeftFinger1
                {
                  OFFSET 0.7932 -9.069 2.5189
                  CHANNELS 3 Zrotation Xrotation Yrotation
                  JOINT LeftFinger11
                  {
                    OFFSET -0.8272 -3.3923 0.5977
                    CHANNELS 3 Zrotation Xrotation Yrotation
                    JOINT LeftFinger12
                    {
                      OFFSET -0.5649 -2.3158 0.4082
                      CHANNELS 3 Zrotation Xrotation Yrotation
                      End Site
                      {
                        OFFSET -0.4919 -1.6479 0.2673
                      }
                    }
                  }
                }
                JOINT LeftFinger2
                {
                  OFFSET 0.9159 -9.2044 0.2193
                  CHANNELS 3 Zrotation Xrotation Yrotation
                  JOINT LeftFinger21
                  {
                    OFFSET 0.0117 -4.1944 -0.0248
                    CHANNELS 3 Zrotation Xrotation Yrotation
                    JOINT LeftFinger22
                    {
                      OFFSET 0.0071 -2.3249 -0.0142
                      CHANNELS 3 Zrotation Xrotation Yrotation
                      End Site
                      {
                        OFFSET -0.1475 -2.0882 0.0028
                      }
                    }
                  }
                }
                JOINT LeftFinger3
                {
                  OFFSET 0.6113 -8.7231 -2.0637
                  CHANNELS 3 Zrotation Xrotation Yrotation
                  JOINT LeftFinger31
                  {
                    OFFSET -0.1927 -3.8059 -0.2383
                    CHANNELS 3 Zrotation Xrotation Yrotation
                    JOINT LeftFinger32
                    {
                      OFFSET -0.1091 -2.1688 -0.1362
                      CHANNELS 3 Zrotation Xrotation Yrotation
                      End Site
                      {
                        OFFSET -0.2358 -1.9176 -0.0906
                      }
                    }
                  }
                }
                JOINT LeftFinger4
                {
                  OFFSET -0.6151 -8.0947 -3.5641
                  CHANNELS 3 Zrotation Xrotation Yrotation
                  JOINT LeftFinger41
                  {
                    OFFSET -0.4882 -2.341 -0.6462
                    CHANNELS 3 Zrotation Xrotation Yrotation
                    JOINT LeftFinger42
                    {
                      OFFSET -0.3575 -1.7167 -0.4742
                      CHANNELS 3 Zrotation Xrotation Yrotation
                      End Site
                      {
                        OFFSET -0.4187 -1.5237 -0.3496
                      }
                    }
                  }
                }
                JOINT LeftFinger0
                {
                  OFFSET -1.42 -1.8761 1.4223
                  CHANNELS 3 Zrotation Xrotation Yrotation
                  JOINT LeftFinger01
                  {
                    OFFSET -1.1471 -3.4929 2.6334
                    CHANNELS 3 Zrotation Xrotation Yrotation
                    JOINT LeftFinger02
                    {
                      OFFSET -0.823 -2.3 1.6571
                      CHANNELS 3 Zrotation Xrotation Yrotation
                      End Site
                      {
                        OFFSET -0.5822 -1.6914 1.1582
                      }
                    }
                  }
                }
              }
            }
          }
        }
        JOINT RightCollar
        {
          OFFSET -2.2603 21.606 7.4023
          CHANNELS 3 Zrotation Xrotation Yrotation
          JOINT RightShoulder
          {
            OFFSET -13.5187 -1.1334 -5.0155
            CHANNELS 3 Zrotation Xrotation Yrotation
            JOINT RightElbow
            {
              OFFSET 0.0994 -28.0499 -0.2431
              CHANNELS 3 Zrotation Xrotation Yrotation
              JOINT RightWrist
              {
                OFFSET -0.0679 -23.3996 -0.1402
                CHANNELS 3 Zrotation Xrotation Yrotation
                JOINT RightFinger1
                {
                  OFFSET -0.7932 -9.0691 2.5189
                  CHANNELS 3 Zrotation Xrotation Yrotation
                  JOINT RightFinger11
                  {
                    OFFSET 0.8272 -3.3923 0.5977
                    CHANNELS 3 Zrotation Xrotation Yrotation
                    JOINT RightFinger12
                    {
                      OFFSET 0.565 -2.3158 0.4082
                      CHANNELS 3 Zrotation Xrotation Yrotation
                      End Site
                      {
                        OFFSET 0.4919 -1.6479 0.2673
                      }
                    }
                  }
                }
                JOINT RightFinger2
                {
                  OFFSET -0.916 -9.2044 0.2193
                  CHANNELS 3 Zrotation Xrotation Yrotation
                  JOINT RightFinger21
                  {
                    OFFSET -0.0117 -4.1944 -0.0248
                    CHANNELS 3 Zrotation Xrotation Yrotation
                    JOINT RightFinger22
                    {
                      OFFSET -0.0071 -2.3249 -0.0142
                      CHANNELS 3 Zrotation Xrotation Yrotation
                      End Site
                      {
                        OFFSET 0.1475 -2.0882 0.0028
                      }
                    }
                  }
                }
                JOINT RightFinger3
                {
                  OFFSET -0.6113 -8.7231 -2.0637
                  CHANNELS 3 Zrotation Xrotation Yrotation
                  JOINT RightFinger31
                  {
                    OFFSET 0.1927 -3.8059 -0.2383
                    CHANNELS 3 Zrotation Xrotation Yrotation
                    JOINT RightFinger32
                    {
                      OFFSET 0.1091 -2.1688 -0.1362
                      CHANNELS 3 Zrotation Xrotation Yrotation
                      End Site
                      {
                        OFFSET 0.2358 -1.9176 -0.0906
                      }
                    }
                  }
                }
                JOINT RightFinger4
                {
                  OFFSET 0.6151 -8.0947 -3.564
                  CHANNELS 3 Zrotation Xrotation Yrotation
                  JOINT RightFinger41
                  {
                    OFFSET 0.4882 -2.341 -0.6462
                    CHANNELS 3 Zrotation Xrotation Yrotation
                    JOINT RightFinger42
                    {
                      OFFSET 0.3574 -1.7166 -0.4742
                      CHANNELS 3 Zrotation Xrotation Yrotation
                      End Site
                      {
                        OFFSET 0.4187 -1.5237 -0.3496
                      }
                    }
                  }
                }
                JOINT RightFinger0
                {
                  OFFSET 1.4199 -1.8761 1.4221
                  CHANNELS 3 Zrotation Xrotation Yrotation
                  JOINT RightFinger01
                  {
                    OFFSET 1.1472 -3.4929 2.6336
                    CHANNELS 3 Zrotation Xrotation Yrotation
                    JOINT RightFinger02
                    {
                      OFFSET 0.8229 -2.3 1.6571
                      CHANNELS 3 Zrotation Xrotation Yrotation
                      End Site
                      {
                        OFFSET 0.5822 -1.6914 1.1582
                      }
                    }
                  }
                }
              }
            }
          }
        }
      }
    }
  }
  JOINT RightHip
  {
    OFFSET -9.412 3.9771 -0.7758
    CHANNELS 3 Zrotation Xrotation Yrotation
    JOINT RightKnee
    {
      OFFSET -0.7531 -40.938 0
      CHANNELS 3 Zrotation Xrotation Yrotation
      JOINT RightAnkle
      {
        OFFSET 0 -40.1986 0
        CHANNELS 3 Zrotation Xrotation Yrotation
        JOINT RightToe
        {
          OFFSET 0 -4.4182 9.239
          CHANNELS 3 Zrotation Xrotation Yrotation
          End Site
          {
            OFFSET 0 0 6.1981
          }
        }
      }
    }
  }
  JOINT LeftHip
  {
    OFFSET 9.4119 3.9773 -0.7758
    CHANNELS 3 Zrotation Xrotation Yrotation
    JOINT LeftKnee
    {
      OFFSET 0.7532 -40.9383 0
      CHANNELS 3 Zrotation Xrotation Yrotation
      JOINT LeftAnkle
      {
        OFFSET 0 -40.1986 0
        CHANNELS 3 Zrotation Xrotation Yrotation
        JOINT LeftToe
        {
          OFFSET 0 -4.4182 9.239
          CHANNELS 3 Zrotation Xrotation Yrotation
          End Site
          {
            OFFSET 0 0 6.1981
          }
        }
      }
    }
  }
}
MOTION
Frames:	4
Frame Time:	0.0333333
5.72205e-005 65.662 3.42586 0 0 -0 0 0 -0 0 0 -0 0 0 -0 0 0 -0 0 0 -0 0 0 -12.5014 88.1196 14.2451 10.6914 -0.00160068 -0.00239207 0.000740045 -8.4365e-005 7.00714e-005 -9.52055e-007 9.93923e-017 -1.98785e-016 -1.59028e-015 9.93923e-017 -5.96354e-016 -1.59028e-015 -9.93923e-017 -5.96354e-016 -1.59028e-015 9.93923e-017 -1.98785e-016 -1.59028e-015 -0.0128176 0.00232552 8.52707e-005 9.93923e-017 5.96354e-016 -0 9.93923e-017 -1.98785e-016 -1.59028e-015 -0.0160551 0.00299681 0.000857156 -2.48481e-016 0 3.18055e-015 9.93923e-017 -1.98785e-016 -1.59028e-015 -0.0125865 0.0031206 0.00282719 0 1.98785e-016 -0 9.93923e-017 -1.98785e-016 -1.59028e-015 9.93923e-017 -5.96354e-016 -1.59028e-015 -9.93923e-017 -5.96354e-016 -1.59028e-015 -0.865644 0.16582 7.03859 -88.0329 10.2057 -10.5567 0.0015593 -0.00248883 -0.000788628 7.87605e-005 4.10553e-005 1.24965e-005 -3.97569e-016 -7.95139e-016 3.18055e-015 -1.98785e-016 -3.97569e-016 3.18055e-015 -1.98785e-016 0 3.18055e-015 -3.97569e-016 -7.95139e-016 3.18055e-015 0.0129473 0.00231697 -8.70038e-005 9.93923e-017 -7.95139e-016 1.59028e-015 -3.97569e-016 -7.95139e-016 3.18055e-015 0.0163314 0.00303369 -0.000872333 3.97569e-016 7.95139e-016 -3.18055e-015 -3.97569e-016 -7.95139e-016 3.18055e-015 0.0145763 0.00367772 -0.00326275 9.93923e-017 -3.97569e-016 -0 -3.97569e-016 -7.95139e-016 3.18055e-015 -1.98785e-016 -3.97569e-016 3.18055e-015 -1.98785e-016 0 3.18055e-015 3.42482 1.32465 -0.0626183 0.000117508 0.717283 0.000978199 -3.4257 -2.04197 -0.0604716 6.47761e-025 0 -0 -3.42483 1.34017 0.0627307 -0.000193936 0.682302 -0.0013703 3.42574 -2.02253 0.0595886 -8.45714e-024 0 -7.40531e-025 
-0.409229 8.60209 9.94485 3.55861e-008 -80.21 6.51478e-008 -0.0217739 9.17532 -0.138239 -0.0211967 18.3507 -0.278365 -0.0211967 18.3508 -0.278365 0.7588 8.18801 -42.1938 -0.0887186 0.57179 8.01482 -6.89789 -0.197273 -4.51268 19.6259 32.3806 21.2069 -12.1232 -64.0884 -36.3388 -1.3346 -5.85441 -19.4318 1.07663e-005 5.5078e-007 -3.59129e-006 -1.98785e-015 0 2.78299e-015 -1.57517e-006 -8.03445e-007 -6.59163e-007 1.07663e-005 5.5078e-007 -3.59129e-006 -0.0128223 0.00233122 8.87101e-005 4.96962e-017 3.18055e-015 4.27387e-015 1.07663e-005 5.5078e-007 -3.59129e-006 -0.0160523 0.00299389 0.000862427 -1.88845e-015 0 7.40473e-015 1.07663e-005 5.5078e-007 -3.59129e-006 -0.0126071 0.00312596 0.00283841 -5.31749e-015 0 1.11816e-015 1.07663e-005 5.5078e-007 -3.59129e-006 -1.98785e-015 0 2.78299e-015 -1.57517e-006 -8.03445e-007 -6.59163e-007 1.88519 -7.33584 13.7194 -27.8636 -12.9324 12.5196 51.3264 -49.2696 9.95916 -29.3532 2.62384 0.820929 3.18055e-015 -2.38542e-015 -5.96354e-016 3.18055e-015 -2.38542e-015 -1.2921e-015 1.59028e-015 -1.59028e-015 1.2921e-015 3.18055e-015 -2.38542e-015 -5.96354e-016 0.0129633 0.00232211 -9.16183e-005 -0 0 9.93923e-017 3.18055e-015 -2.38542e-015 -5.96354e-016 0.0163233 0.00303568 -0.000872599 1.59028e-015 -7.95139e-016 -5.96354e-016 3.18055e-015 -2.38542e-015 -5.96354e-016 0.0145918 0.00367479 -0.00326661 8.68988e-032 2.38542e-015 -2.08724e-015 3.18055e-015 -2.38542e-015 -5.96354e-016 3.18055e-015 -2.38542e-015 -1.2921e-015 1.59028e-015 -1.59028e-015 1.2921e-015 -37.722 -36.7623 -5.69226 168.627 80.4298 -171.318 -21.6037 28.6775 44.004 3.43878e-008 2.64205e-009 -1.01029e-007 11.5456 -31.4418 -12.2759 -163.816 72.2038 167.19 11.8168 -10.9959 5.96768 1.53535e-006 2.83014e-006 -5.25454e-007 
-0.545495 -0.383942 9.34934 180 -86.6647 180 -0.0281809 10.5779 -0.163838 -0.0256352 21.1559 -0.330985 -0.0256352 21.1559 -0.330985 1.55373 8.04878 -49.1418 -0.102635 1.21347 9.31621 -8.00932 0.114946 -2.97599 8.13285 34.3317 22.1389 -26.1264 -73.4197 -54.5311 -1.69004 -6.81697 -22.7806 1.30294e-006 -1.01645e-005 -7.81809e-006 8.68629e-007 1.77978e-006 -5.21206e-006 0 0 -2.03754e-015 1.30294e-006 -1.01645e-005 -7.81809e-006 -0.012805 0.0023236 8.35194e-005 7.95139e-016 1.59028e-014 -1.00883e-014 1.30294e-006 -1.01645e-005 -7.81809e-006 -0.0160689 0.0030103 0.000855966 6.89673e-032 -3.18055e-015 1.2424e-015 1.30294e-006 -1.01645e-005 -7.81809e-006 -0.0125613 0.00312609 0.00282236 -3.97569e-016 0 -5.51627e-015 1.30294e-006 -1.01645e-005 -7.81809e-006 8.68629e-007 1.77978e-006 -5.21206e-006 0 0 -2.03754e-015 2.68851 -8.06758 14.8458 -18.3588 -17.2756 16.6087 60.0524 -56.7215 11.8709 -33.1635 3.30305 0.840793 0 0 -0 -0 0 7.95139e-016 -0 0 7.95139e-016 0 0 -0 0.0129569 0.00231136 -8.03075e-005 -3.18055e-015 -3.18055e-015 -7.95139e-016 0 0 -0 0.0163439 0.00303819 -0.000879339 -3.18055e-015 3.18055e-015 -2.38542e-015 0 0 -0 0.0145742 0.00367767 -0.00325557 -3.18055e-015 -4.77083e-015 -0 0 0 -0 -0 0 7.95139e-016 -0 0 7.95139e-016 -45.8364 -42.6448 -7.52851 175.038 65.4422 -177.931 -30.5171 29.5893 53.4861 9.09264e-007 -3.20534e-006 -2.06207e-008 12.6748 -35.2315 -14.4982 -169.965 55.5792 173.263 13.5605 -13.156 7.02015 -6.27428e-006 -6.43491e-009 -1.06718e-006 
-0.505402 1.91175 9.54763 179.999 -89.9981 179.999 -0.0329125 10.0734 -0.157144 -0.0381525 20.1468 -0.315818 -0.0381524 20.1469 -0.315818 0.741845 7.51142 -47.303 -0.0676271 1.87726 8.97005 -7.70697 0.551841 -3.02216 11.0415 33.848 21.9382 -21.1906 -71.1946 -48.5299 -1.817 -6.53996 -22.1907 -9.60018e-007 -1.32772e-005 -1.7003e-006 -4.40672e-006 9.06795e-006 2.82237e-006 -9.93923e-016 0 -1.2921e-015 -9.60018e-007 -1.32772e-005 -1.7003e-006 -0.0128382 0.00233562 8.86445e-005 -9.93923e-016 1.59028e-015 8.34896e-015 -9.60018e-007 -1.32772e-005 -1.7003e-006 -0.0160542 0.00298929 0.000859195 -2.02071e-006 4.80084e-006 1.79351e-006 -9.60018e-007 -1.32772e-005 -1.7003e-006 -0.012569 0.00313604 0.00282694 1.3263e-006 -1.9424e-006 2.46527e-006 -9.60018e-007 -1.32772e-005 -1.7003e-006 -4.40672e-006 9.06795e-006 2.82237e-006 -9.93923e-016 0 -1.2921e-015 2.76189 -7.16966 14.5735 -20.7695 -16.1641 15.5593 55.9109 -53.9108 9.21617 -30.7987 3.2626 0.948999 6.36111e-015 -3.18055e-015 7.95139e-016 3.18055e-015 -1.59028e-015 -2.38542e-015 6.36111e-015 -3.18055e-015 -7.95139e-016 6.36111e-015 -3.18055e-015 7.95139e-016 0.0129414 0.00230544 -8.52131e-005 6.62086e-032 1.59028e-015 -2.38542e-015 6.36111e-015 -3.18055e-015 7.95139e-016 0.01633 0.00303291 -0.000875639 -3.18055e-015 -1.59028e-015 -0 6.36111e-015 -3.18055e-015 7.95139e-016 0.0145899 0.00367162 -0.00326316 3.18055e-015 0 7.95139e-016 6.36111e-015 -3.18055e-015 7.95139e-016 3.18055e-015 -1.59028e-015 -2.38542e-015 6.36111e-015 -3.18055e-015 -7.95139e-016 -44.2238 -41.105 -7.63083 174.267 69.2425 -177.122 -28.69 29.4024 51.3465 3.83533e-007 -1.62211e-006 1.90803e-007 13.0996 -34.4569 -13.2715 -168.999 59.8183 172.31 13.6019 -12.657 6.40021 1.59028e-015 -1.59028e-015 -6.36111e-015 
